<svg id="svg" version="1.1" xmlns="http://www.w3.org/2000/svg" xmlns:xlink="http://www.w3.org/1999/xlink" width="400" height="400" viewBox="0, 0, 400,400"><g id="svgg"><path id="path0" d="M182.558 84.700 C 182.439 85.085,182.184 85.697,181.992 86.060 C 181.800 86.423,181.601 87.636,181.550 88.755 C 181.384 92.406,182.557 91.881,183.031 88.092 C 183.409 85.063,182.372 85.200,204.893 85.200 L 225.039 85.200 225.520 86.528 C 225.784 87.259,226.000 88.159,226.000 88.528 C 226.000 88.898,226.160 89.200,226.356 89.200 C 226.552 89.200,226.805 89.785,226.919 90.500 C 227.033 91.215,227.337 92.520,227.596 93.400 C 227.854 94.280,228.161 95.495,228.278 96.100 C 228.395 96.705,228.631 97.200,228.803 97.200 C 228.975 97.200,229.215 97.875,229.335 98.700 C 229.738 101.455,230.088 102.800,230.402 102.800 C 230.573 102.800,230.805 103.385,230.918 104.100 C 231.418 107.263,232.336 110.579,232.749 110.716 C 232.997 110.799,233.204 111.347,233.209 111.933 C 233.221 113.250,234.657 118.741,235.150 119.353 C 235.348 119.599,235.637 120.745,235.793 121.900 C 235.948 123.054,236.238 124.100,236.437 124.223 C 236.637 124.346,236.800 124.941,236.800 125.544 C 236.800 126.147,236.951 126.811,237.136 127.020 C 237.320 127.229,237.708 128.480,237.998 129.800 C 238.287 131.120,238.726 132.380,238.972 132.600 C 239.219 132.820,239.454 133.450,239.494 134.000 C 239.640 135.984,240.096 138.012,240.444 138.227 C 240.640 138.348,240.800 138.977,240.800 139.624 C 240.800 140.271,240.961 140.800,241.158 140.800 C 241.355 140.800,241.615 141.475,241.735 142.300 C 242.151 145.141,242.492 146.400,242.845 146.400 C 243.040 146.400,243.200 147.030,243.200 147.800 C 243.200 148.570,243.380 149.200,243.600 149.200 C 243.820 149.200,244.000 149.584,244.000 150.054 C 244.000 151.090,244.857 154.122,245.229 154.400 C 245.376 154.510,245.589 155.230,245.702 156.000 C 245.999 158.027,247.263 162.566,247.596 162.800 C 247.752 162.910,247.977 163.739,248.094 164.643 C 248.212 165.547,248.577 166.897,248.905 167.643 C 249.234 168.389,249.884 170.620,250.350 172.600 C 250.816 174.579,251.378 176.259,251.599 176.333 C 251.820 176.407,252.008 177.037,252.018 177.733 C 252.027 178.430,252.295 179.720,252.612 180.600 C 252.929 181.480,253.191 182.594,253.194 183.076 C 253.197 183.558,253.380 184.064,253.600 184.200 C 253.820 184.336,254.000 184.829,254.000 185.295 C 254.000 186.196,254.665 188.539,255.249 189.695 C 255.442 190.077,255.600 190.831,255.600 191.371 C 255.600 191.911,255.760 192.452,255.956 192.573 C 256.151 192.694,256.413 193.379,256.537 194.096 C 257.057 197.110,257.310 198.000,257.645 198.000 C 257.840 198.000,258.000 198.619,258.000 199.376 C 258.000 200.133,258.180 200.864,258.400 201.000 C 258.620 201.136,258.800 201.766,258.800 202.400 C 258.800 203.034,258.980 203.664,259.200 203.800 C 259.420 203.936,259.600 204.577,259.600 205.224 C 259.600 205.871,259.780 206.400,260.000 206.400 C 260.220 206.400,260.400 206.932,260.400 207.581 C 260.400 208.231,260.602 209.266,260.850 209.881 C 261.097 210.497,261.444 211.360,261.620 211.800 C 261.796 212.240,262.027 213.050,262.133 213.600 C 262.559 215.810,263.730 219.812,264.004 220.000 C 264.165 220.110,264.392 220.830,264.508 221.600 C 264.819 223.663,265.794 227.283,266.286 228.200 C 266.522 228.640,266.898 229.900,267.122 231.000 C 267.346 232.100,267.715 233.630,267.943 234.400 C 268.170 235.170,268.687 236.994,269.090 238.453 C 269.494 239.912,270.019 241.352,270.257 241.653 C 270.495 241.954,270.806 243.092,270.948 244.181 C 271.191 246.039,271.692 247.941,272.428 249.800 C 272.602 250.240,272.970 251.590,273.245 252.800 C 273.521 254.010,273.893 255.171,274.073 255.380 C 274.253 255.589,274.400 256.253,274.400 256.856 C 274.400 257.459,274.560 258.052,274.756 258.173 C 274.951 258.294,275.213 258.979,275.337 259.696 C 275.857 262.710,276.110 263.600,276.445 263.600 C 276.640 263.600,276.800 263.992,276.800 264.472 C 276.800 264.951,276.980 265.941,277.200 266.672 C 277.420 267.402,277.792 268.675,278.026 269.500 C 278.261 270.325,278.602 271.360,278.785 271.800 C 278.967 272.240,279.344 273.635,279.622 274.900 C 279.900 276.165,280.260 277.200,280.422 277.200 C 280.584 277.200,280.806 277.875,280.916 278.700 C 281.266 281.330,282.452 285.600,282.833 285.600 C 283.035 285.600,283.200 286.012,283.200 286.515 C 283.200 287.664,284.530 291.490,285.142 292.102 C 285.394 292.354,285.600 292.932,285.600 293.386 C 285.600 293.841,285.955 294.840,286.389 295.606 C 286.823 296.373,287.491 297.621,287.873 298.380 C 289.305 301.227,293.157 304.400,295.180 304.400 C 295.631 304.400,296.000 304.580,296.000 304.800 C 296.000 305.029,297.237 305.203,298.900 305.206 C 302.421 305.214,302.899 305.468,302.730 307.242 L 302.600 308.600 254.277 308.702 L 205.954 308.803 206.077 307.102 L 206.200 305.400 214.900 305.292 C 220.353 305.225,223.600 305.035,223.600 304.785 C 223.600 304.527,220.229 304.424,214.100 304.493 L 204.600 304.600 204.600 307.000 L 204.600 309.400 254.050 309.502 L 303.499 309.603 303.750 308.352 C 303.887 307.663,304.000 306.493,304.000 305.750 L 304.000 304.400 299.963 304.400 C 296.262 304.400,295.908 304.333,295.716 303.600 C 295.568 303.033,295.170 302.800,294.353 302.800 C 293.584 302.800,293.200 302.596,293.200 302.187 C 293.200 301.851,292.885 301.456,292.500 301.310 C 291.730 301.018,290.800 300.198,290.800 299.809 C 290.800 299.673,290.350 299.145,289.800 298.635 C 289.250 298.125,288.800 297.352,288.800 296.916 C 288.800 296.480,288.440 295.798,288.000 295.400 C 287.560 295.002,287.200 294.265,287.200 293.762 C 287.200 293.259,287.020 292.736,286.800 292.600 C 286.580 292.464,286.400 291.897,286.400 291.339 C 286.400 290.782,286.040 289.869,285.600 289.309 C 285.160 288.750,284.800 287.785,284.800 287.166 C 284.800 286.547,284.519 285.882,284.175 285.690 C 283.806 285.483,283.389 284.371,283.156 282.970 C 282.939 281.667,282.655 279.972,282.526 279.204 C 282.396 278.436,282.017 277.608,281.683 277.364 C 281.312 277.093,281.002 276.036,280.888 274.653 C 280.784 273.406,280.542 272.288,280.350 272.169 C 280.157 272.050,280.000 271.429,280.000 270.789 C 280.000 270.148,279.640 268.983,279.200 268.200 C 278.760 267.417,278.400 266.089,278.400 265.250 C 278.400 264.232,278.134 263.483,277.600 263.000 C 277.064 262.515,276.800 261.768,276.800 260.738 C 276.800 259.892,276.620 259.200,276.400 259.200 C 276.180 259.200,276.000 258.336,276.000 257.280 C 276.000 256.224,275.779 255.139,275.510 254.870 C 275.044 254.404,274.233 251.459,273.727 248.400 C 273.600 247.630,273.249 246.645,272.948 246.211 C 272.647 245.777,272.400 244.860,272.400 244.173 C 272.400 243.459,272.078 242.633,271.648 242.243 C 271.184 241.824,270.802 240.765,270.652 239.481 C 270.176 235.429,269.902 234.193,269.338 233.551 C 268.822 232.963,268.367 231.172,267.725 227.200 C 267.600 226.430,267.161 225.322,266.749 224.738 C 266.314 224.122,266.000 222.995,266.000 222.052 C 266.000 220.838,265.798 220.320,265.200 220.000 C 264.567 219.661,264.400 219.162,264.400 217.610 C 264.400 216.530,264.220 215.536,264.000 215.400 C 263.780 215.264,263.600 214.471,263.600 213.638 C 263.600 212.632,263.332 211.881,262.800 211.400 C 262.237 210.891,262.000 210.168,262.000 208.962 C 262.000 208.019,261.820 207.136,261.600 207.000 C 261.380 206.864,261.196 205.998,261.191 205.076 C 261.186 204.031,260.888 203.023,260.400 202.400 C 259.956 201.833,259.614 200.770,259.609 199.943 C 259.603 199.023,259.379 198.401,259.000 198.255 C 258.623 198.111,258.400 197.498,258.400 196.607 C 258.400 194.808,257.229 190.399,256.531 189.569 C 256.239 189.221,256.000 188.197,256.000 187.292 C 256.000 186.387,255.820 185.536,255.600 185.400 C 255.380 185.264,255.199 184.578,255.197 183.876 C 255.196 183.174,254.837 182.060,254.400 181.400 C 253.963 180.740,253.604 179.553,253.603 178.762 C 253.601 177.858,253.317 177.068,252.837 176.633 C 252.387 176.226,251.980 175.173,251.847 174.071 C 251.253 169.149,251.080 168.416,250.362 167.766 C 249.838 167.292,249.600 166.539,249.600 165.362 C 249.600 164.419,249.420 163.536,249.200 163.400 C 248.980 163.264,248.800 162.471,248.800 161.638 C 248.800 160.632,248.532 159.881,248.000 159.400 C 247.434 158.888,247.200 158.168,247.200 156.941 C 247.200 155.640,247.000 155.082,246.400 154.707 C 245.784 154.323,245.600 153.774,245.600 152.327 C 245.600 151.293,245.420 150.336,245.200 150.200 C 244.980 150.064,244.800 149.181,244.800 148.238 C 244.800 147.032,244.563 146.309,244.000 145.800 C 243.437 145.291,243.200 144.568,243.200 143.362 C 243.200 142.419,243.020 141.536,242.800 141.400 C 242.580 141.264,242.400 140.458,242.400 139.610 C 242.400 138.761,242.199 138.000,241.954 137.918 C 241.708 137.836,241.355 136.808,241.170 135.634 C 240.984 134.459,240.574 133.206,240.259 132.849 C 239.944 132.492,239.590 131.480,239.471 130.600 C 238.998 127.082,238.404 124.666,237.859 124.049 C 237.544 123.692,237.190 122.680,237.071 121.800 C 236.588 118.205,235.998 115.861,235.416 115.218 C 235.077 114.843,234.800 113.904,234.800 113.130 C 234.800 112.232,234.511 111.463,234.000 111.000 C 233.437 110.491,233.200 109.768,233.200 108.562 C 233.200 107.619,233.020 106.736,232.800 106.600 C 232.580 106.464,232.400 105.597,232.400 104.673 C 232.400 103.426,232.194 102.864,231.600 102.493 C 230.974 102.102,230.800 101.560,230.800 99.997 C 230.800 98.898,230.620 98.000,230.400 98.000 C 230.180 98.000,230.000 97.190,230.000 96.200 C 230.000 95.210,229.849 94.400,229.664 94.400 C 229.125 94.400,228.400 92.475,228.400 91.043 C 228.400 90.232,228.092 89.445,227.600 89.000 C 227.045 88.498,226.800 87.768,226.800 86.618 C 226.800 83.858,228.024 84.000,204.307 84.000 C 184.149 84.000,182.761 84.045,182.558 84.700 M180.700 91.911 C 180.153 92.026,180.000 92.471,180.000 93.949 C 180.000 94.989,179.808 96.032,179.573 96.267 C 179.046 96.794,179.247 99.833,179.800 99.715 C 180.020 99.668,180.314 98.948,180.454 98.115 C 180.594 97.282,180.970 95.664,181.290 94.520 C 181.920 92.269,181.788 91.682,180.700 91.911 M183.200 99.567 C 183.200 100.428,183.028 101.193,182.817 101.267 C 182.443 101.397,181.324 106.493,180.921 109.900 C 180.810 110.835,180.581 111.600,180.412 111.600 C 180.128 111.600,179.980 112.225,179.371 116.000 C 179.247 116.770,178.991 117.760,178.803 118.200 C 178.614 118.640,178.349 119.540,178.212 120.200 C 178.076 120.860,177.778 122.120,177.550 123.000 C 177.321 123.880,177.041 125.275,176.925 126.100 C 176.810 126.925,176.575 127.600,176.403 127.600 C 176.107 127.600,175.847 128.552,175.337 131.504 C 175.213 132.221,174.951 132.906,174.756 133.027 C 174.560 133.148,174.400 133.779,174.400 134.429 C 174.400 135.079,174.242 135.923,174.049 136.305 C 173.420 137.551,172.800 139.834,172.800 140.905 C 172.800 141.481,172.620 142.064,172.400 142.200 C 172.180 142.336,172.000 142.966,172.000 143.600 C 172.000 144.234,171.840 144.852,171.644 144.973 C 171.271 145.204,170.784 147.499,170.749 149.199 C 170.737 149.748,170.558 150.303,170.350 150.431 C 170.000 150.647,168.478 155.970,168.242 157.800 C 168.186 158.240,167.920 159.127,167.652 159.772 C 167.384 160.417,167.058 161.767,166.927 162.772 C 166.796 163.777,166.534 164.799,166.343 165.043 C 165.888 165.625,164.400 171.462,164.400 172.664 C 164.400 173.179,164.248 173.600,164.061 173.600 C 163.714 173.600,162.483 178.226,162.120 180.900 C 162.008 181.725,161.775 182.400,161.603 182.400 C 161.288 182.400,160.939 183.741,160.535 186.500 C 160.415 187.325,160.155 188.000,159.958 188.000 C 159.761 188.000,159.600 188.619,159.600 189.376 C 159.600 190.133,159.420 190.864,159.200 191.000 C 158.980 191.136,158.800 191.766,158.800 192.400 C 158.800 193.034,158.620 193.664,158.400 193.800 C 158.180 193.936,158.000 194.667,158.000 195.424 C 158.000 196.181,157.840 196.800,157.644 196.800 C 157.448 196.800,157.178 197.430,157.044 198.200 C 156.910 198.970,156.690 200.232,156.556 201.004 C 156.421 201.776,156.151 202.506,155.956 202.627 C 155.760 202.748,155.600 203.456,155.600 204.200 C 155.600 204.944,155.437 205.654,155.237 205.777 C 155.038 205.900,154.748 206.946,154.593 208.100 C 154.437 209.255,154.083 210.650,153.805 211.200 C 153.125 212.544,152.000 217.240,152.000 218.732 C 152.000 219.393,151.810 219.997,151.579 220.074 C 150.933 220.289,150.418 223.058,150.929 223.569 C 151.230 223.870,160.782 224.000,182.493 224.000 C 216.161 224.000,214.741 224.095,213.548 221.931 C 213.266 221.419,213.000 220.460,212.957 219.800 C 212.915 219.140,212.672 217.790,212.418 216.800 C 212.164 215.810,211.830 214.385,211.676 213.633 C 211.210 211.349,210.274 211.530,210.537 213.853 C 211.059 218.471,211.484 220.481,212.008 220.805 C 212.473 221.093,212.442 221.291,211.822 221.976 C 211.027 222.855,207.200 223.206,207.200 222.400 C 207.200 221.799,189.497 221.863,188.894 222.466 C 188.286 223.074,172.066 223.026,171.455 222.415 C 170.880 221.840,167.759 221.894,166.795 222.496 C 166.162 222.891,165.838 222.891,165.205 222.496 C 164.275 221.915,162.722 221.846,162.180 222.361 C 161.839 222.685,155.902 223.011,153.100 222.859 C 151.796 222.789,151.488 220.663,152.658 219.807 C 153.051 219.520,153.441 218.413,153.623 217.069 C 153.791 215.829,154.215 214.528,154.565 214.178 C 154.951 213.792,155.200 212.859,155.200 211.795 C 155.200 210.834,155.380 209.936,155.600 209.800 C 155.820 209.664,156.000 208.762,156.000 207.796 C 156.000 206.684,156.211 205.922,156.576 205.718 C 157.097 205.426,157.773 202.662,158.287 198.715 C 158.394 197.899,158.733 197.022,159.041 196.766 C 159.367 196.495,159.600 195.558,159.600 194.514 C 159.600 193.332,159.871 192.382,160.400 191.709 C 160.882 191.097,161.200 190.086,161.200 189.170 C 161.200 188.332,161.380 187.536,161.600 187.400 C 161.820 187.264,162.000 186.180,162.000 184.990 C 162.000 183.238,162.151 182.747,162.800 182.400 C 163.417 182.070,163.600 181.562,163.600 180.186 C 163.600 179.204,163.780 178.400,164.000 178.400 C 164.220 178.400,164.400 177.438,164.400 176.262 C 164.400 174.632,164.590 173.952,165.200 173.400 C 165.692 172.955,166.000 172.168,166.000 171.357 C 166.000 169.925,166.725 168.000,167.264 168.000 C 167.449 168.000,167.600 167.111,167.600 166.024 C 167.600 164.937,167.780 163.936,168.000 163.800 C 168.220 163.664,168.400 162.762,168.400 161.796 C 168.400 160.574,168.602 159.926,169.066 159.667 C 169.716 159.303,170.194 157.331,170.668 153.059 C 170.794 151.922,171.197 150.803,171.641 150.359 C 172.179 149.821,172.400 149.031,172.400 147.643 C 172.400 146.272,172.580 145.617,173.000 145.455 C 173.371 145.313,173.600 144.705,173.600 143.861 C 173.600 143.111,173.870 141.851,174.200 141.062 C 174.530 140.272,174.800 138.922,174.800 138.062 C 174.800 137.160,175.054 136.287,175.400 136.000 C 175.742 135.716,176.000 134.844,176.000 133.975 C 176.000 133.135,176.180 132.336,176.400 132.200 C 176.620 132.064,176.802 131.198,176.805 130.276 C 176.813 128.020,177.178 126.800,177.847 126.800 C 178.219 126.800,178.400 126.310,178.401 125.300 C 178.402 124.475,178.762 123.211,179.201 122.490 C 179.641 121.770,180.000 120.501,180.000 119.670 C 180.000 118.840,180.160 117.989,180.357 117.780 C 180.553 117.571,180.789 116.282,180.881 114.915 C 180.981 113.435,181.304 112.141,181.679 111.715 C 182.029 111.317,182.427 109.847,182.576 108.400 C 183.214 102.198,183.291 101.768,183.624 102.600 C 183.800 103.040,183.956 104.407,183.972 105.638 C 183.993 107.344,184.190 108.048,184.800 108.600 C 185.585 109.311,185.600 109.299,185.574 107.962 C 185.535 105.881,184.611 101.923,184.247 102.282 C 184.070 102.457,183.960 101.970,184.003 101.200 C 184.132 98.882,184.021 98.000,183.600 98.000 C 183.380 98.000,183.200 98.705,183.200 99.567 M178.014 101.174 C 177.786 101.599,177.600 102.553,177.600 103.294 C 177.600 104.034,177.379 104.861,177.110 105.130 C 176.574 105.666,175.764 108.974,175.346 112.335 C 175.195 113.551,174.848 114.560,174.540 114.678 C 174.190 114.813,174.000 115.564,174.000 116.819 C 174.000 117.883,173.820 118.864,173.600 119.000 C 173.106 119.305,173.064 123.200,173.555 123.200 C 173.908 123.200,174.249 121.940,174.665 119.097 C 174.786 118.271,175.045 117.495,175.242 117.374 C 175.439 117.252,175.600 116.533,175.600 115.776 C 175.600 115.019,175.780 114.400,176.000 114.400 C 176.220 114.400,176.400 113.871,176.400 113.224 C 176.400 112.577,176.580 111.936,176.800 111.800 C 177.020 111.664,177.200 110.944,177.200 110.200 C 177.200 109.456,177.380 108.736,177.600 108.600 C 177.820 108.464,178.000 107.902,178.000 107.350 C 178.000 106.799,178.176 106.018,178.392 105.616 C 179.016 104.450,179.386 100.400,178.869 100.400 C 178.627 100.400,178.242 100.748,178.014 101.174 M185.600 111.776 C 185.600 112.973,185.780 114.064,186.000 114.200 C 186.220 114.336,186.400 115.309,186.400 116.362 C 186.400 117.768,186.612 118.468,187.200 119.000 C 187.826 119.567,188.000 120.232,188.000 122.062 C 188.000 123.354,188.179 124.400,188.400 124.400 C 188.620 124.400,188.800 125.272,188.800 126.338 C 188.800 127.768,189.010 128.466,189.600 129.000 C 190.182 129.527,190.400 130.232,190.400 131.587 C 190.400 132.631,190.752 134.177,191.200 135.106 C 191.640 136.016,192.000 137.370,192.000 138.114 C 192.000 140.194,192.854 144.127,193.458 144.831 C 193.756 145.179,194.000 146.293,194.000 147.308 C 194.000 148.323,194.180 149.264,194.400 149.400 C 194.620 149.536,194.801 150.402,194.803 151.324 C 194.804 152.323,195.126 153.485,195.600 154.200 C 196.131 155.001,196.396 156.077,196.397 157.438 C 196.399 158.966,196.600 159.657,197.200 160.200 C 197.804 160.746,198.000 161.432,198.000 162.995 C 198.000 164.135,198.135 165.203,198.300 165.369 C 198.598 165.670,198.627 165.859,198.741 168.239 C 198.773 168.920,199.160 169.893,199.600 170.400 C 200.160 171.046,200.400 171.897,200.400 173.238 C 200.400 174.291,200.580 175.264,200.800 175.400 C 201.020 175.536,201.200 176.512,201.200 177.570 C 201.200 178.886,201.452 179.813,202.000 180.509 C 202.522 181.172,202.800 182.132,202.800 183.267 C 202.800 184.605,202.995 185.130,203.645 185.535 C 204.459 186.044,204.483 186.007,204.288 184.532 C 204.007 182.398,202.886 177.562,202.449 176.600 C 202.250 176.160,201.892 174.644,201.655 173.231 C 201.417 171.817,201.064 170.557,200.869 170.431 C 200.675 170.304,200.404 169.390,200.267 168.400 C 199.810 165.102,198.882 161.098,198.516 160.848 C 198.317 160.711,197.949 159.340,197.700 157.800 C 196.948 153.161,196.761 152.236,196.403 151.400 C 195.998 150.455,195.617 148.786,195.323 146.670 C 195.206 145.829,194.868 145.048,194.572 144.934 C 194.212 144.796,194.111 144.344,194.267 143.565 C 194.395 142.925,194.319 142.177,194.097 141.901 C 193.876 141.625,193.583 140.725,193.447 139.900 C 192.832 136.167,192.693 135.600,192.397 135.600 C 192.223 135.600,191.981 134.835,191.859 133.900 C 191.434 130.640,191.109 129.191,190.756 128.973 C 190.560 128.852,190.400 128.144,190.400 127.400 C 190.400 126.656,190.220 125.936,190.000 125.800 C 189.780 125.664,189.600 125.116,189.600 124.582 C 189.600 123.413,188.717 119.881,188.355 119.600 C 188.213 119.490,188.000 118.680,187.882 117.800 C 186.988 111.162,185.600 107.497,185.600 111.776 M172.300 123.920 C 171.758 124.027,171.600 124.463,171.600 125.846 C 171.600 127.081,171.353 127.899,170.800 128.492 C 170.260 129.072,170.000 129.904,170.000 131.052 C 170.000 131.987,169.820 132.864,169.600 133.000 C 169.380 133.136,169.200 134.220,169.200 135.410 C 169.200 137.162,169.049 137.653,168.400 138.000 C 167.792 138.325,167.600 138.838,167.600 140.134 C 167.600 141.072,167.420 142.020,167.200 142.240 C 166.980 142.460,166.771 143.396,166.735 144.321 C 166.558 148.835,168.134 145.667,169.084 139.600 C 169.205 138.830,169.418 138.110,169.558 138.000 C 169.922 137.715,170.800 134.175,170.800 132.994 C 170.800 132.447,170.980 132.000,171.200 132.000 C 171.420 132.000,171.600 131.370,171.600 130.600 C 171.600 129.830,171.780 129.200,172.000 129.200 C 172.220 129.200,172.400 128.738,172.400 128.174 C 172.400 127.609,172.591 126.790,172.825 126.354 C 173.456 125.175,173.149 123.752,172.300 123.920 M165.452 147.700 C 165.319 148.195,165.208 149.161,165.205 149.846 C 165.202 150.531,164.840 151.550,164.400 152.109 C 163.900 152.744,163.600 153.732,163.600 154.739 C 163.600 155.627,163.420 156.464,163.200 156.600 C 162.980 156.736,162.800 157.677,162.800 158.692 C 162.800 159.849,162.553 160.810,162.136 161.270 C 161.478 161.998,160.999 163.956,160.540 167.800 C 160.409 168.900,160.073 170.070,159.793 170.400 C 159.512 170.730,159.072 172.035,158.813 173.300 C 158.555 174.565,158.176 175.600,157.972 175.600 C 157.767 175.600,157.600 176.500,157.600 177.600 C 157.600 178.700,157.420 179.600,157.200 179.600 C 156.980 179.600,156.800 180.547,156.800 181.704 C 156.800 183.374,156.635 183.910,156.000 184.307 C 155.395 184.685,155.200 185.240,155.200 186.580 C 155.200 187.555,155.020 188.464,154.800 188.600 C 154.580 188.736,154.400 189.738,154.400 190.828 C 154.400 192.313,154.200 192.979,153.600 193.493 C 153.022 193.988,152.798 194.680,152.791 195.989 C 152.785 197.168,152.509 198.149,152.000 198.800 C 151.552 199.373,151.214 200.430,151.209 201.276 C 151.204 202.088,151.020 202.864,150.800 203.000 C 150.580 203.136,150.400 204.109,150.400 205.162 C 150.400 206.537,150.185 207.270,149.637 207.767 C 148.901 208.433,148.763 209.077,148.153 214.706 C 147.990 216.213,147.708 216.928,147.163 217.220 C 146.582 217.531,146.400 218.068,146.400 219.470 C 146.400 220.619,146.180 221.479,145.814 221.756 C 145.249 222.183,144.569 225.025,144.128 228.800 C 144.012 229.790,143.682 230.870,143.394 231.200 C 142.802 231.877,142.000 235.799,142.000 238.011 C 142.000 238.968,141.723 239.727,141.200 240.200 C 140.679 240.672,140.400 241.432,140.400 242.382 C 140.400 243.874,139.639 245.991,139.100 245.997 C 138.935 245.999,138.800 246.900,138.800 248.000 C 138.800 249.100,138.620 250.000,138.400 250.000 C 138.180 250.000,138.000 250.872,138.000 251.938 C 138.000 253.368,137.790 254.066,137.200 254.600 C 136.637 255.109,136.400 255.832,136.400 257.038 C 136.400 257.981,136.220 258.864,136.000 259.000 C 135.780 259.136,135.600 260.109,135.600 261.162 C 135.600 262.568,135.388 263.268,134.800 263.800 C 134.252 264.296,133.997 265.040,133.991 266.162 C 133.986 267.169,133.681 268.185,133.200 268.800 C 132.708 269.429,132.414 270.432,132.409 271.500 C 132.404 272.435,132.220 273.200,132.000 273.200 C 131.780 273.200,131.600 274.027,131.600 275.037 C 131.600 276.268,131.336 277.209,130.800 277.891 C 130.318 278.503,130.000 279.514,130.000 280.430 C 130.000 281.268,129.820 282.064,129.600 282.200 C 129.380 282.336,129.200 283.173,129.200 284.061 C 129.200 285.068,128.900 286.056,128.400 286.691 C 127.960 287.250,127.600 288.229,127.600 288.866 C 127.600 289.527,127.342 290.124,127.000 290.255 C 126.670 290.382,126.400 290.906,126.400 291.419 C 126.400 291.933,126.220 292.464,126.000 292.600 C 125.780 292.736,125.600 293.287,125.600 293.824 C 125.600 294.361,125.240 295.160,124.800 295.600 C 124.360 296.040,123.994 296.625,123.987 296.900 C 123.967 297.704,122.968 298.800,122.256 298.800 C 121.867 298.800,121.600 299.125,121.600 299.600 C 121.600 300.133,121.333 300.400,120.800 300.400 C 120.360 300.400,120.000 300.580,120.000 300.800 C 120.000 301.020,119.642 301.200,119.203 301.200 C 118.765 301.200,118.182 301.560,117.907 302.000 C 117.558 302.560,116.974 302.800,115.966 302.800 C 115.032 302.800,114.269 303.082,113.800 303.600 C 113.125 304.346,112.568 304.400,105.538 304.400 L 98.000 304.400 98.000 307.002 L 98.000 309.605 130.700 309.502 L 163.400 309.400 163.400 307.000 L 163.400 304.600 151.911 304.494 C 140.918 304.392,140.403 304.354,139.997 303.594 C 139.720 303.076,139.159 302.800,138.386 302.800 C 137.734 302.800,137.200 302.599,137.200 302.353 C 137.200 302.107,136.660 301.291,136.000 300.539 L 134.800 299.172 134.800 293.830 C 134.800 289.361,134.929 288.202,135.591 286.744 C 136.026 285.785,136.386 284.156,136.391 283.124 C 136.396 282.092,136.580 281.136,136.800 281.000 C 137.020 280.864,137.200 279.748,137.200 278.520 C 137.200 276.984,137.390 276.149,137.808 275.843 C 138.405 275.407,138.991 272.980,139.462 269.000 C 139.592 267.900,139.967 266.692,140.296 266.316 C 140.625 265.940,140.986 264.818,141.099 263.823 C 141.211 262.827,141.550 261.808,141.851 261.557 C 142.179 261.285,142.400 260.316,142.400 259.151 C 142.400 258.078,142.558 257.200,142.752 257.200 C 142.945 257.200,143.183 256.100,143.281 254.756 C 143.407 253.015,143.651 252.203,144.129 251.936 C 144.598 251.673,144.800 251.032,144.800 249.804 C 144.800 248.838,144.980 247.936,145.200 247.800 C 145.420 247.664,145.600 246.617,145.600 245.473 C 145.600 243.826,145.767 243.288,146.400 242.893 C 147.026 242.502,147.200 241.960,147.200 240.397 C 147.200 239.298,147.351 238.400,147.536 238.400 C 148.113 238.400,148.800 236.433,148.800 234.781 C 148.800 233.912,148.971 233.200,149.180 233.200 C 149.389 233.200,149.614 232.165,149.680 230.900 L 149.800 228.600 179.600 228.482 C 210.987 228.358,213.497 228.435,213.887 229.532 C 214.017 229.899,214.321 230.454,214.562 230.765 C 214.803 231.075,215.018 231.615,215.041 231.965 C 215.063 232.314,215.108 233.157,215.141 233.839 C 215.173 234.520,215.560 235.493,216.000 236.000 C 216.583 236.672,216.800 237.497,216.800 239.038 C 216.800 240.201,216.980 241.264,217.200 241.400 C 217.420 241.536,217.600 242.438,217.600 243.404 C 217.600 244.646,217.801 245.272,218.285 245.544 C 218.803 245.834,219.009 246.616,219.130 248.763 C 219.218 250.324,219.450 251.600,219.645 251.600 C 219.840 251.600,220.000 252.500,220.000 253.600 C 220.000 254.700,220.151 255.600,220.336 255.600 C 220.931 255.600,221.600 257.589,221.600 259.357 C 221.600 260.497,221.840 261.293,222.312 261.721 C 222.793 262.156,223.054 263.048,223.116 264.466 C 223.166 265.622,223.386 266.746,223.604 266.964 C 223.822 267.182,224.000 268.320,224.000 269.493 C 224.000 271.019,224.170 271.691,224.600 271.855 C 224.930 271.982,225.200 272.456,225.200 272.908 C 225.200 274.578,226.483 281.036,227.032 282.132 C 227.345 282.755,227.600 283.943,227.600 284.771 C 227.600 285.740,227.904 286.621,228.451 287.239 L 229.303 288.200 229.022 285.200 C 228.868 283.550,228.575 282.029,228.371 281.820 C 228.167 281.611,228.000 280.756,228.000 279.920 C 228.000 279.084,227.838 278.400,227.640 278.400 C 227.442 278.400,227.181 277.635,227.059 276.700 C 226.620 273.337,226.306 272.000,225.956 272.000 C 225.760 272.000,225.600 271.291,225.600 270.424 C 225.600 269.557,225.439 268.748,225.242 268.626 C 225.045 268.505,224.782 267.729,224.658 266.903 C 224.126 263.382,223.894 262.400,223.597 262.400 C 223.423 262.400,223.181 261.635,223.059 260.700 C 222.620 257.337,222.306 256.000,221.956 256.000 C 221.760 256.000,221.600 255.280,221.600 254.400 C 221.600 253.520,221.420 252.800,221.200 252.800 C 220.980 252.800,220.800 252.263,220.800 251.606 C 220.800 250.261,219.950 246.706,219.555 246.400 C 219.413 246.290,219.198 245.480,219.077 244.600 C 218.557 240.808,217.657 237.019,217.245 236.882 C 217.000 236.800,216.800 236.156,216.800 235.451 C 216.800 234.745,216.530 233.131,216.200 231.865 C 215.870 230.598,215.600 229.238,215.600 228.842 C 215.600 226.728,216.782 226.800,181.917 226.800 L 149.697 226.800 149.283 227.900 C 148.420 230.193,148.000 231.751,148.000 232.665 C 148.000 233.185,147.838 233.923,147.639 234.305 C 147.440 234.687,147.062 235.810,146.797 236.800 C 146.533 237.790,146.155 239.013,145.958 239.519 C 145.761 240.024,145.600 241.059,145.600 241.819 C 145.600 242.578,145.440 243.200,145.245 243.200 C 144.892 243.200,144.551 244.460,144.135 247.303 C 144.014 248.129,143.755 248.905,143.558 249.026 C 143.361 249.148,143.200 249.867,143.200 250.624 C 143.200 251.381,143.040 252.000,142.844 252.000 C 142.509 252.000,142.284 252.920,141.743 256.500 C 141.618 257.325,141.375 258.000,141.202 258.000 C 141.029 258.000,140.791 258.585,140.673 259.300 C 140.554 260.015,140.249 261.410,139.994 262.400 C 139.738 263.390,139.485 264.664,139.431 265.231 C 139.377 265.798,139.168 266.518,138.966 266.831 C 138.408 267.699,137.097 272.847,137.095 274.182 C 137.094 274.832,136.860 275.597,136.576 275.882 C 136.291 276.166,135.944 277.435,135.804 278.700 C 135.665 279.965,135.306 281.630,135.006 282.400 C 131.285 291.963,133.555 304.400,139.023 304.400 C 139.560 304.400,140.000 304.580,140.000 304.800 C 140.000 305.056,143.722 305.200,150.367 305.200 C 162.294 305.200,162.000 305.148,162.000 307.243 L 162.000 308.800 130.577 308.800 L 99.154 308.800 99.277 307.100 L 99.400 305.400 106.500 305.291 C 110.780 305.225,113.600 305.026,113.600 304.791 C 113.600 304.576,114.239 304.400,115.019 304.400 C 115.800 304.400,117.105 304.063,117.919 303.652 C 122.264 301.458,123.047 300.860,124.256 298.812 C 124.650 298.145,125.114 297.600,125.286 297.600 C 125.459 297.600,125.600 297.240,125.600 296.800 C 125.600 296.360,125.735 295.999,125.900 295.997 C 126.259 295.993,127.200 294.056,127.200 293.320 C 127.200 293.034,127.380 292.800,127.600 292.800 C 127.820 292.800,128.000 292.476,128.000 292.080 C 128.000 291.684,128.178 291.182,128.396 290.964 C 128.614 290.746,128.912 289.675,129.058 288.584 C 129.204 287.493,129.505 286.481,129.728 286.335 C 130.178 286.041,131.629 281.167,131.734 279.600 C 131.770 279.050,132.015 278.226,132.277 277.769 C 132.539 277.312,132.878 275.962,133.030 274.769 C 133.182 273.576,133.463 272.401,133.655 272.157 C 134.095 271.598,135.600 265.762,135.600 264.616 C 135.600 264.145,135.772 263.588,135.982 263.378 C 136.361 262.999,137.498 258.902,137.864 256.600 C 137.969 255.940,138.207 255.040,138.394 254.600 C 139.118 252.897,139.600 251.033,139.600 249.940 C 139.600 249.313,139.760 248.800,139.956 248.800 C 140.152 248.800,140.405 248.215,140.519 247.500 C 140.633 246.785,140.941 245.480,141.204 244.600 C 141.467 243.720,141.772 242.325,141.883 241.500 C 141.994 240.675,142.225 240.000,142.398 240.000 C 142.571 240.000,142.827 239.325,142.968 238.500 C 143.586 234.873,143.708 234.380,144.044 234.173 C 144.240 234.052,144.400 233.333,144.400 232.576 C 144.400 231.819,144.560 231.200,144.756 231.200 C 144.952 231.200,145.209 230.615,145.328 229.900 C 145.678 227.786,146.039 226.253,146.387 225.400 C 146.895 224.159,148.000 219.002,148.000 217.876 C 148.000 217.321,148.194 216.802,148.431 216.723 C 148.843 216.586,149.746 213.190,150.272 209.800 C 150.408 208.920,150.676 208.098,150.866 207.973 C 151.056 207.848,151.409 206.678,151.651 205.373 C 151.892 204.068,152.241 202.701,152.426 202.336 C 152.926 201.347,154.400 195.234,154.400 194.145 C 154.400 193.625,154.551 193.200,154.736 193.200 C 154.921 193.200,155.297 192.165,155.571 190.900 C 155.846 189.635,156.235 188.287,156.435 187.905 C 156.636 187.523,156.800 186.578,156.800 185.805 C 156.800 185.032,156.960 184.400,157.155 184.400 C 157.508 184.400,157.849 183.141,158.265 180.300 C 158.385 179.475,158.625 178.800,158.798 178.800 C 158.971 178.800,159.209 178.215,159.327 177.500 C 159.446 176.785,159.753 175.390,160.010 174.400 C 160.268 173.410,160.505 172.060,160.537 171.400 C 160.569 170.740,160.801 170.020,161.052 169.800 C 161.493 169.412,161.831 168.288,162.251 165.800 C 162.363 165.140,162.646 164.207,162.881 163.726 C 163.115 163.246,163.213 162.492,163.098 162.052 C 162.980 161.603,163.111 161.166,163.394 161.058 C 163.672 160.951,164.030 159.814,164.189 158.532 C 164.348 157.249,164.709 155.750,164.990 155.200 C 165.636 153.936,166.800 149.201,166.800 147.834 C 166.800 146.548,165.788 146.447,165.452 147.700 M57.417 158.124 C 55.302 159.410,55.116 160.205,56.600 161.600 C 57.769 162.698,57.934 164.750,56.998 166.546 C 56.232 168.014,56.230 170.161,56.995 170.796 C 57.702 171.383,58.800 171.058,58.800 170.262 C 58.800 169.952,59.070 169.474,59.400 169.200 C 59.730 168.926,60.000 168.285,60.000 167.775 C 60.000 167.265,60.180 166.736,60.400 166.600 C 61.158 166.132,60.896 158.761,60.100 158.157 C 59.244 157.507,58.447 157.497,57.417 158.124 M204.400 188.576 C 204.400 189.773,204.580 190.864,204.800 191.000 C 205.020 191.136,205.200 192.128,205.200 193.204 C 205.200 194.619,205.386 195.264,205.871 195.536 C 206.356 195.807,206.590 196.617,206.715 198.456 C 206.809 199.855,207.047 201.171,207.243 201.380 C 207.440 201.589,207.600 202.498,207.600 203.400 C 207.600 204.302,207.783 205.223,208.007 205.447 C 208.231 205.671,208.609 206.960,208.847 208.311 C 209.372 211.290,210.192 212.256,210.604 210.380 C 210.770 209.626,210.704 208.944,210.440 208.680 C 210.198 208.438,210.000 207.646,210.000 206.920 C 210.000 206.194,209.820 205.600,209.600 205.600 C 209.380 205.600,209.200 204.880,209.200 204.000 C 209.200 203.120,209.038 202.400,208.840 202.400 C 208.642 202.400,208.381 201.635,208.259 200.700 C 207.820 197.337,207.506 196.000,207.156 196.000 C 206.960 196.000,206.800 195.291,206.800 194.424 C 206.800 193.557,206.620 192.736,206.400 192.600 C 206.180 192.464,206.000 191.964,206.000 191.488 C 206.000 190.134,205.052 186.400,204.709 186.400 C 204.539 186.400,204.400 187.379,204.400 188.576 M229.150 293.400 C 229.123 295.930,229.074 298.135,229.042 298.300 C 228.865 299.221,226.116 302.800,225.586 302.800 C 224.922 302.800,224.000 303.544,224.000 304.080 C 224.000 304.627,225.623 304.432,226.784 303.746 C 227.970 303.045,229.200 301.270,229.200 300.258 C 229.200 299.918,229.480 299.483,229.823 299.291 C 230.451 298.940,230.766 290.116,230.184 289.175 C 229.490 288.051,229.195 289.257,229.150 293.400 M300.579 359.223 C 299.553 360.356,300.235 361.400,302.000 361.400 C 303.765 361.400,304.447 360.356,303.421 359.223 C 303.011 358.771,302.372 358.400,302.000 358.400 C 301.628 358.400,300.989 358.771,300.579 359.223 " stroke="none" fill="#929292" fill-rule="evenodd"></path><path id="path1" d="M183.843 86.500 C 182.012 93.444,181.868 94.020,181.011 97.783 C 180.662 99.314,180.229 100.664,180.049 100.783 C 179.868 100.903,179.608 101.720,179.472 102.600 C 178.960 105.900,178.062 109.314,177.637 109.577 C 177.395 109.727,177.213 110.288,177.234 110.825 C 177.267 111.676,176.484 114.956,175.139 119.600 C 174.917 120.370,174.636 121.540,174.517 122.200 C 174.397 122.860,174.113 123.634,173.885 123.919 C 173.657 124.205,173.429 124.925,173.379 125.519 C 173.328 126.114,173.071 127.320,172.806 128.200 C 172.542 129.080,172.232 130.387,172.119 131.104 C 172.005 131.821,171.751 132.506,171.556 132.627 C 171.360 132.748,171.200 133.456,171.200 134.200 C 171.200 134.944,171.020 135.664,170.800 135.800 C 170.580 135.936,170.400 136.566,170.400 137.200 C 170.400 137.834,170.220 138.464,170.000 138.600 C 169.780 138.736,169.600 139.467,169.600 140.224 C 169.600 140.981,169.420 141.600,169.200 141.600 C 168.980 141.600,168.800 142.082,168.800 142.672 C 168.800 143.669,168.322 145.508,167.572 147.400 C 167.397 147.840,167.169 148.740,167.064 149.400 C 166.698 151.702,165.561 155.799,165.182 156.178 C 164.972 156.388,164.800 156.945,164.800 157.416 C 164.800 158.459,163.379 164.110,162.870 165.092 C 162.668 165.481,162.375 166.700,162.220 167.800 C 162.065 168.900,161.684 170.196,161.373 170.679 C 161.063 171.163,160.917 171.840,161.049 172.184 C 161.181 172.528,161.109 173.033,160.889 173.305 C 160.669 173.577,160.260 174.880,159.979 176.200 C 159.699 177.520,159.280 178.960,159.049 179.400 C 158.818 179.840,158.596 180.650,158.556 181.200 C 158.516 181.750,158.272 182.920,158.014 183.800 C 157.756 184.680,157.453 185.850,157.342 186.400 C 157.231 186.950,156.987 187.760,156.800 188.200 C 156.613 188.640,156.369 189.450,156.258 190.000 C 156.147 190.550,155.851 191.720,155.600 192.600 C 155.349 193.480,155.053 194.650,154.942 195.200 C 154.831 195.750,154.587 196.560,154.400 197.000 C 154.042 197.844,153.685 199.341,153.327 201.504 C 153.209 202.221,152.951 202.906,152.756 203.027 C 152.560 203.148,152.400 203.629,152.400 204.095 C 152.400 204.996,151.735 207.339,151.151 208.495 C 150.958 208.877,150.800 209.644,150.800 210.200 C 150.800 210.756,150.636 211.523,150.434 211.905 C 150.233 212.287,149.853 213.680,149.590 215.000 C 149.326 216.320,148.974 217.580,148.806 217.800 C 148.638 218.020,148.401 218.740,148.279 219.400 C 147.788 222.058,146.794 226.028,146.452 226.693 C 146.253 227.082,145.784 228.840,145.411 230.600 C 145.038 232.360,144.489 234.340,144.191 235.000 C 143.893 235.660,143.528 237.010,143.378 238.000 C 143.229 238.990,142.909 240.160,142.668 240.600 C 142.426 241.040,142.197 241.850,142.159 242.400 C 142.059 243.835,140.795 248.415,140.160 249.644 C 139.864 250.218,139.731 250.797,139.864 250.931 C 139.998 251.065,139.924 251.675,139.700 252.287 C 139.307 253.362,138.840 255.039,138.000 258.400 C 137.005 262.380,136.698 263.446,136.361 264.095 C 136.162 264.477,136.000 265.094,136.000 265.466 C 136.000 265.839,135.832 266.696,135.627 267.372 C 135.422 268.047,135.044 269.410,134.788 270.400 C 134.532 271.390,134.160 272.513,133.961 272.895 C 133.762 273.277,133.600 273.984,133.600 274.466 C 133.600 275.391,132.942 277.725,132.351 278.895 C 132.158 279.277,132.000 280.096,132.000 280.715 C 132.000 281.334,131.848 282.011,131.663 282.220 C 131.478 282.429,131.105 283.635,130.835 284.900 C 130.564 286.165,130.176 287.200,129.971 287.200 C 129.767 287.200,129.600 287.605,129.600 288.100 C 129.598 294.140,120.833 304.800,115.868 304.800 C 115.306 304.800,114.736 304.980,114.600 305.200 C 114.450 305.443,111.463 305.600,106.976 305.600 L 99.600 305.600 99.600 307.000 L 99.600 308.400 130.600 308.400 L 161.600 308.400 161.600 307.000 L 161.600 305.600 150.624 305.600 C 144.587 305.600,139.550 305.443,139.432 305.252 C 139.314 305.060,138.698 304.800,138.064 304.673 C 133.502 303.760,131.757 297.013,133.547 287.200 C 133.767 285.990,134.073 284.141,134.227 283.091 C 134.381 282.041,134.662 281.085,134.853 280.967 C 135.044 280.849,135.200 280.364,135.200 279.888 C 135.200 278.534,136.148 274.800,136.491 274.800 C 136.661 274.800,136.800 274.181,136.800 273.424 C 136.800 272.667,136.954 271.952,137.143 271.835 C 137.331 271.719,137.594 270.706,137.727 269.584 C 137.860 268.463,138.246 266.990,138.584 266.311 C 138.923 265.632,139.200 264.774,139.200 264.403 C 139.200 263.493,140.699 257.682,141.089 257.080 C 141.260 256.816,141.611 255.520,141.869 254.200 C 142.363 251.673,142.850 249.649,143.600 247.000 C 143.849 246.120,144.204 244.686,144.389 243.813 C 144.573 242.939,144.902 242.166,145.120 242.093 C 145.337 242.021,145.420 241.598,145.304 241.155 C 145.188 240.711,145.283 239.954,145.516 239.474 C 145.946 238.587,146.283 237.254,146.673 234.896 C 146.791 234.179,147.049 233.494,147.244 233.373 C 147.440 233.252,147.600 232.634,147.600 232.000 C 147.600 231.366,147.780 230.736,148.000 230.600 C 148.220 230.464,148.400 229.843,148.400 229.221 C 148.400 228.598,148.715 227.704,149.100 227.234 L 149.800 226.379 182.467 226.489 C 200.434 226.550,215.243 226.709,215.376 226.842 C 215.509 226.976,215.817 228.146,216.060 229.442 C 216.303 230.739,216.682 232.192,216.903 232.671 C 217.124 233.150,217.218 233.996,217.111 234.551 C 216.998 235.144,217.123 235.638,217.414 235.750 C 217.687 235.855,218.014 236.629,218.140 237.470 C 218.667 240.985,218.907 242.019,219.244 242.227 C 219.440 242.348,219.600 243.056,219.600 243.800 C 219.600 244.544,219.780 245.264,220.000 245.400 C 220.220 245.536,220.400 246.119,220.400 246.695 C 220.400 247.272,220.568 248.296,220.773 248.972 C 220.978 249.647,221.331 250.920,221.557 251.800 C 221.783 252.680,222.271 254.570,222.641 256.000 C 223.010 257.430,223.331 259.140,223.352 259.800 C 223.373 260.460,223.544 261.111,223.731 261.246 C 223.919 261.381,224.323 262.821,224.629 264.446 C 224.936 266.071,225.350 267.760,225.550 268.200 C 226.102 269.412,227.200 274.554,227.200 275.924 C 227.200 276.589,227.373 277.193,227.583 277.267 C 227.794 277.340,228.351 279.470,228.820 282.000 C 229.289 284.530,229.825 286.894,230.011 287.254 C 230.637 288.464,231.269 294.580,230.995 296.773 C 230.550 300.340,227.053 305.498,225.663 304.639 C 225.458 304.512,225.068 304.677,224.796 305.004 C 224.386 305.499,222.790 305.600,215.351 305.600 L 206.400 305.600 206.400 307.000 L 206.400 308.400 254.400 308.400 L 302.400 308.400 302.400 307.000 L 302.400 305.600 299.195 305.600 C 297.432 305.600,295.677 305.435,295.295 305.233 C 294.913 305.032,294.036 304.658,293.346 304.404 C 291.942 303.886,289.200 301.533,289.200 300.846 C 289.200 300.601,289.024 300.400,288.809 300.400 C 288.594 300.400,288.078 299.725,287.661 298.900 C 287.245 298.075,286.628 296.860,286.290 296.200 C 285.031 293.737,283.973 291.163,283.738 289.992 C 283.605 289.327,283.340 288.686,283.148 288.568 C 282.957 288.450,282.800 288.001,282.800 287.571 C 282.800 287.141,282.642 286.477,282.449 286.095 C 281.911 285.029,281.200 282.623,281.200 281.866 C 281.200 281.494,281.038 280.877,280.839 280.495 C 280.640 280.113,280.256 278.990,279.985 278.000 C 278.942 274.191,278.691 273.378,278.351 272.705 C 278.158 272.323,278.000 271.706,278.000 271.334 C 278.000 270.577,277.289 268.171,276.751 267.105 C 276.558 266.723,276.400 266.046,276.400 265.600 C 276.400 265.154,276.239 264.477,276.043 264.095 C 275.846 263.713,275.463 262.410,275.191 261.200 C 274.919 259.990,274.571 258.820,274.418 258.600 C 274.265 258.380,273.814 256.760,273.416 255.000 C 273.018 253.240,272.458 251.260,272.171 250.600 C 271.884 249.940,271.342 248.050,270.968 246.400 C 270.594 244.750,270.062 242.860,269.786 242.200 C 269.510 241.540,269.161 240.370,269.009 239.600 C 268.734 238.199,268.144 236.104,267.600 234.600 C 266.821 232.445,266.400 230.864,266.400 230.095 C 266.400 229.629,266.254 229.157,266.076 229.047 C 265.898 228.937,265.504 227.656,265.200 226.200 C 264.896 224.744,264.502 223.463,264.324 223.353 C 264.146 223.243,264.000 222.711,264.000 222.171 C 264.000 221.631,263.838 220.877,263.639 220.495 C 263.440 220.113,263.060 218.990,262.793 218.000 C 262.527 217.010,262.163 215.840,261.985 215.400 C 261.806 214.960,261.569 214.150,261.458 213.600 C 261.347 213.050,261.048 211.880,260.795 211.000 C 260.542 210.120,260.304 209.004,260.267 208.520 C 260.230 208.036,259.975 207.415,259.700 207.140 C 259.425 206.865,259.200 206.284,259.200 205.848 C 259.200 205.092,258.652 203.110,257.970 201.400 C 257.795 200.960,257.343 199.250,256.967 197.600 C 256.591 195.950,256.050 194.060,255.766 193.400 C 255.481 192.740,254.948 190.850,254.581 189.200 C 254.213 187.550,253.750 185.884,253.551 185.497 C 253.211 184.837,252.181 181.030,251.738 178.800 C 251.629 178.250,251.396 177.440,251.220 177.000 C 251.044 176.560,250.697 175.697,250.450 175.081 C 250.202 174.466,250.000 173.531,250.000 173.005 C 250.000 172.478,249.820 171.936,249.600 171.800 C 249.380 171.664,249.200 170.933,249.200 170.176 C 249.200 169.419,249.020 168.800,248.800 168.800 C 248.580 168.800,248.400 168.271,248.400 167.624 C 248.400 166.977,248.220 166.336,248.000 166.200 C 247.780 166.064,247.600 165.511,247.600 164.971 C 247.600 164.431,247.442 163.677,247.249 163.295 C 246.665 162.139,246.000 159.796,246.000 158.895 C 246.000 158.429,245.841 157.949,245.646 157.829 C 245.451 157.708,245.196 157.113,245.079 156.505 C 244.962 155.897,244.671 154.725,244.433 153.900 C 244.195 153.075,243.820 151.770,243.600 151.000 C 243.380 150.230,243.020 148.970,242.800 148.200 C 242.580 147.430,242.220 146.170,242.000 145.400 C 241.780 144.630,241.436 143.415,241.236 142.700 C 241.036 141.985,240.482 140.050,240.005 138.400 C 239.528 136.750,239.150 134.995,239.164 134.500 C 239.179 134.005,239.026 133.600,238.824 133.600 C 238.622 133.600,238.243 132.565,237.981 131.300 C 237.720 130.035,237.276 128.460,236.995 127.800 C 236.714 127.140,236.361 125.970,236.209 125.200 C 235.913 123.691,235.280 121.487,234.775 120.200 C 234.602 119.760,234.369 118.950,234.258 118.400 C 234.147 117.850,233.846 116.680,233.591 115.800 C 233.335 114.920,233.033 113.615,232.919 112.900 C 232.805 112.185,232.573 111.600,232.402 111.600 C 232.107 111.600,231.846 110.645,231.337 107.696 C 231.213 106.979,230.951 106.294,230.756 106.173 C 230.560 106.052,230.400 105.434,230.400 104.800 C 230.400 104.166,230.220 103.536,230.000 103.400 C 229.780 103.264,229.600 102.634,229.600 102.000 C 229.600 101.366,229.420 100.736,229.200 100.600 C 228.980 100.464,228.800 99.853,228.800 99.243 C 228.800 98.633,228.674 98.008,228.521 97.854 C 228.146 97.479,226.742 92.453,226.663 91.200 C 226.628 90.650,226.375 89.962,226.100 89.671 C 225.825 89.381,225.600 88.784,225.600 88.345 C 225.600 85.865,226.825 86.000,204.373 86.000 C 188.392 86.000,183.946 86.108,183.843 86.500 M184.539 99.107 C 184.671 100.148,184.980 101.900,185.225 103.000 C 185.470 104.100,185.700 105.720,185.735 106.600 C 185.771 107.480,186.004 108.380,186.253 108.600 C 186.502 108.820,186.814 109.720,186.945 110.600 C 187.179 112.171,187.632 114.223,188.447 117.400 C 188.672 118.280,189.095 120.232,189.386 121.737 C 189.676 123.243,190.114 124.674,190.357 124.917 C 190.601 125.161,190.800 125.765,190.800 126.260 C 190.800 126.756,191.095 128.205,191.455 129.480 C 191.815 130.756,192.091 132.314,192.068 132.941 C 192.045 133.569,192.268 134.325,192.564 134.621 C 192.860 134.918,193.233 136.204,193.393 137.480 C 193.552 138.755,193.944 140.304,194.263 140.921 C 194.582 141.538,194.805 142.349,194.759 142.722 C 194.713 143.095,194.876 143.888,195.122 144.484 C 195.367 145.081,195.689 146.521,195.837 147.684 C 195.985 148.848,196.268 150.005,196.465 150.255 C 196.787 150.664,197.738 154.670,198.256 157.800 C 198.365 158.460,198.602 159.360,198.783 159.800 C 199.375 161.240,200.000 163.872,200.000 164.923 C 200.000 165.489,200.161 166.052,200.358 166.174 C 200.555 166.295,200.806 167.071,200.917 167.897 C 201.028 168.724,201.331 170.120,201.592 171.000 C 201.853 171.880,202.153 173.140,202.260 173.800 C 202.367 174.460,202.610 175.360,202.800 175.800 C 202.990 176.240,203.237 177.140,203.348 177.800 C 203.460 178.460,203.760 179.810,204.015 180.800 C 204.271 181.790,204.509 183.178,204.545 183.885 C 204.581 184.592,204.833 185.393,205.105 185.665 C 205.377 185.937,205.600 186.475,205.600 186.860 C 205.600 187.246,205.889 188.605,206.242 189.880 C 206.947 192.427,207.336 194.170,208.010 197.800 C 208.255 199.120,208.696 200.740,208.991 201.400 C 209.700 202.988,211.014 208.794,210.886 209.771 C 210.830 210.196,210.971 210.658,211.199 210.800 C 211.428 210.941,211.804 212.214,212.035 213.628 C 212.266 215.043,212.630 216.562,212.844 217.005 C 213.058 217.447,213.282 218.257,213.341 218.805 C 213.400 219.352,213.675 220.584,213.951 221.542 C 214.849 224.657,217.623 224.416,182.112 224.302 L 150.200 224.200 150.066 223.254 C 149.993 222.733,150.128 222.112,150.366 221.874 C 150.605 221.635,150.800 220.947,150.800 220.344 C 150.800 219.741,150.960 219.148,151.156 219.027 C 151.351 218.906,151.607 218.221,151.723 217.504 C 152.216 214.458,153.256 210.590,153.613 210.467 C 153.826 210.393,154.000 209.933,154.000 209.443 C 154.000 208.317,155.588 201.935,156.001 201.400 C 156.171 201.180,156.438 200.050,156.594 198.890 C 156.750 197.729,157.085 196.559,157.339 196.290 C 157.593 196.020,157.825 195.260,157.855 194.600 C 157.915 193.271,159.098 188.593,159.648 187.505 C 159.842 187.123,160.000 186.369,160.000 185.829 C 160.000 185.289,160.160 184.748,160.356 184.627 C 160.551 184.506,160.821 183.776,160.956 183.004 C 161.090 182.232,161.310 180.968,161.444 180.196 C 161.579 179.424,161.849 178.694,162.044 178.573 C 162.240 178.452,162.400 177.834,162.400 177.200 C 162.400 176.566,162.580 175.936,162.800 175.800 C 163.020 175.664,163.200 175.034,163.200 174.400 C 163.200 173.766,163.360 173.148,163.556 173.027 C 163.751 172.906,164.001 172.221,164.109 171.504 C 164.406 169.548,165.588 165.095,166.020 164.305 C 166.229 163.923,166.400 163.306,166.400 162.934 C 166.400 162.177,167.111 159.771,167.649 158.705 C 167.842 158.323,168.000 157.556,168.000 157.000 C 168.000 156.444,168.164 155.677,168.366 155.295 C 168.567 154.913,168.947 153.520,169.210 152.200 C 169.474 150.880,169.826 149.620,169.994 149.400 C 170.162 149.180,170.399 148.460,170.521 147.800 C 171.012 145.142,172.006 141.172,172.348 140.507 C 172.547 140.118,173.020 138.360,173.399 136.600 C 173.778 134.840,174.244 133.040,174.436 132.600 C 174.627 132.160,174.872 131.350,174.979 130.800 C 175.441 128.433,175.965 126.666,176.271 126.441 C 176.452 126.309,176.632 125.750,176.671 125.200 C 176.710 124.650,176.927 123.480,177.153 122.600 C 178.016 119.237,178.456 117.358,178.652 116.200 C 178.763 115.540,179.010 114.640,179.200 114.200 C 179.390 113.760,179.640 112.860,179.755 112.200 C 179.956 111.047,180.311 109.381,181.226 105.300 C 181.460 104.255,181.749 102.724,181.868 101.897 C 181.987 101.071,182.245 100.295,182.442 100.174 C 182.639 100.052,182.800 99.273,182.800 98.443 C 182.800 95.548,184.154 96.066,184.539 99.107 " stroke="none" fill="#040404" fill-rule="evenodd"></path><path id="path2" d="M184.093 101.200 C 184.093 101.970,184.175 102.285,184.276 101.900 C 184.376 101.515,184.376 100.885,184.276 100.500 C 184.175 100.115,184.093 100.430,184.093 101.200 M221.600 255.000 C 221.600 255.550,221.755 256.000,221.945 256.000 C 222.134 256.000,222.203 255.550,222.098 255.000 C 221.993 254.450,221.838 254.000,221.753 254.000 C 221.669 254.000,221.600 254.450,221.600 255.000 M102.518 305.498 C 104.233 305.573,106.933 305.572,108.518 305.497 C 110.103 305.421,108.700 305.359,105.400 305.360 C 102.100 305.361,100.803 305.422,102.518 305.498 M146.100 305.499 C 148.905 305.568,153.495 305.568,156.300 305.499 C 159.105 305.430,156.810 305.374,151.200 305.374 C 145.590 305.374,143.295 305.430,146.100 305.499 M210.300 305.498 C 212.555 305.570,216.245 305.570,218.500 305.498 C 220.755 305.427,218.910 305.369,214.400 305.369 C 209.890 305.369,208.045 305.427,210.300 305.498 M298.300 305.489 C 299.015 305.578,300.185 305.578,300.900 305.489 C 301.615 305.401,301.030 305.328,299.600 305.328 C 298.170 305.328,297.585 305.401,298.300 305.489 " stroke="none" fill="#646464" fill-rule="evenodd"></path><path id="path3" d="M184.274 85.696 C 183.717 86.104,187.568 86.200,204.393 86.200 C 218.086 86.200,225.154 86.063,225.067 85.800 C 224.852 85.156,185.150 85.056,184.274 85.696 M226.406 91.033 C 226.409 91.455,226.595 92.070,226.818 92.400 C 227.115 92.838,227.152 92.676,226.956 91.800 C 226.627 90.329,226.398 90.010,226.406 91.033 M183.063 96.670 C 182.918 96.815,182.800 97.613,182.800 98.443 C 182.800 99.273,182.620 100.064,182.400 100.200 C 182.180 100.336,182.000 100.741,182.000 101.100 C 182.000 101.648,182.095 101.628,182.587 100.976 C 182.910 100.549,183.180 99.503,183.187 98.651 C 183.198 97.320,183.284 97.172,183.800 97.600 C 184.135 97.878,184.400 97.921,184.400 97.698 C 184.400 97.136,183.381 96.352,183.063 96.670 M228.002 96.876 C 228.001 97.248,228.180 97.664,228.400 97.800 C 228.620 97.936,228.800 98.566,228.800 99.200 C 228.800 99.834,228.947 100.444,229.128 100.555 C 229.308 100.667,229.374 100.201,229.274 99.521 C 229.056 98.036,228.006 95.853,228.002 96.876 M180.649 97.415 C 180.512 97.773,180.418 98.456,180.441 98.933 C 180.467 99.481,180.603 99.286,180.810 98.403 C 181.160 96.916,181.065 96.333,180.649 97.415 M184.468 100.800 C 184.488 101.839,185.118 103.546,185.132 102.600 C 185.138 102.160,184.989 101.440,184.800 101.000 C 184.589 100.510,184.461 100.432,184.468 100.800 M181.449 103.815 C 181.312 104.173,181.221 104.946,181.246 105.533 C 181.280 106.332,181.370 106.198,181.604 105.000 C 181.935 103.300,181.862 102.740,181.449 103.815 M185.450 106.000 C 185.775 108.241,186.002 108.560,185.994 106.767 C 185.991 106.015,185.808 105.130,185.588 104.800 C 185.309 104.381,185.267 104.742,185.450 106.000 M178.183 107.100 C 178.056 107.705,177.781 108.515,177.572 108.900 C 177.337 109.335,177.335 109.600,177.570 109.600 C 177.777 109.600,178.031 109.285,178.136 108.900 C 178.607 107.163,178.799 106.000,178.615 106.000 C 178.505 106.000,178.311 106.495,178.183 107.100 M231.206 107.833 C 231.209 108.255,231.395 108.870,231.618 109.200 C 231.915 109.638,231.952 109.476,231.756 108.600 C 231.427 107.129,231.198 106.810,231.206 107.833 M185.600 108.595 C 185.600 108.739,185.889 109.147,186.243 109.500 C 186.834 110.091,186.875 110.083,186.743 109.405 C 186.611 108.722,185.600 108.006,185.600 108.595 M232.000 111.041 C 232.000 111.160,232.270 111.527,232.600 111.857 C 233.120 112.378,233.200 112.379,233.200 111.871 C 233.200 111.549,232.930 111.182,232.600 111.055 C 232.270 110.929,232.000 110.922,232.000 111.041 M179.017 114.500 C 178.677 115.579,178.554 117.600,178.829 117.600 C 178.989 117.600,179.184 116.790,179.263 115.800 C 179.405 114.009,179.318 113.547,179.017 114.500 M175.465 116.300 C 175.344 117.125,175.153 118.430,175.039 119.200 C 174.926 119.970,174.926 120.240,175.039 119.800 C 175.152 119.360,175.400 118.550,175.590 118.000 C 176.223 116.165,176.419 114.800,176.050 114.800 C 175.849 114.800,175.585 115.475,175.465 116.300 M188.016 118.300 C 188.007 118.795,188.180 119.200,188.400 119.200 C 188.620 119.200,188.814 119.515,188.832 119.900 C 188.849 120.285,188.950 120.386,189.057 120.124 C 189.163 119.862,188.976 119.142,188.641 118.524 C 188.073 117.475,188.031 117.460,188.016 118.300 M177.449 121.015 C 177.312 121.373,177.218 122.056,177.241 122.533 C 177.267 123.081,177.403 122.886,177.610 122.003 C 177.960 120.516,177.865 119.933,177.449 121.015 M174.032 122.900 C 174.014 123.285,173.820 123.600,173.600 123.600 C 173.380 123.600,173.200 123.819,173.200 124.086 C 173.200 124.400,173.428 124.344,173.846 123.925 C 174.202 123.569,174.396 123.036,174.278 122.739 C 174.131 122.370,174.053 122.421,174.032 122.900 M176.649 124.215 C 176.512 124.573,176.415 125.166,176.434 125.533 C 176.453 125.900,176.627 125.669,176.821 125.020 C 177.198 123.758,177.065 123.133,176.649 124.215 M189.600 124.511 C 189.600 124.890,189.780 125.200,190.000 125.200 C 190.220 125.200,190.421 125.605,190.446 126.100 C 190.481 126.766,190.540 126.820,190.674 126.307 C 190.774 125.927,190.573 125.211,190.228 124.718 C 189.714 123.985,189.600 123.947,189.600 124.511 M236.240 125.466 C 236.608 126.999,236.800 127.144,236.800 125.890 C 236.800 125.317,236.613 124.732,236.384 124.590 C 236.111 124.421,236.062 124.723,236.240 125.466 M173.246 125.267 C 173.221 125.634,173.096 126.264,172.970 126.667 C 172.752 127.362,172.763 127.363,173.197 126.687 C 173.448 126.296,173.573 125.666,173.473 125.287 C 173.311 124.668,173.288 124.666,173.246 125.267 M237.844 131.000 C 238.173 132.471,238.402 132.790,238.394 131.767 C 238.391 131.345,238.205 130.730,237.982 130.400 C 237.685 129.962,237.648 130.124,237.844 131.000 M174.846 131.476 C 174.821 131.958,174.640 132.452,174.444 132.573 C 173.987 132.855,173.657 135.600,174.080 135.600 C 174.256 135.600,174.400 135.006,174.400 134.280 C 174.400 133.554,174.597 132.763,174.838 132.522 C 175.078 132.282,175.189 131.751,175.084 131.342 C 174.923 130.717,174.886 130.738,174.846 131.476 M171.295 132.501 C 170.743 133.627,170.432 136.027,170.872 135.755 C 171.053 135.644,171.200 134.969,171.200 134.256 C 171.200 133.543,171.413 132.747,171.673 132.487 C 171.934 132.226,172.054 131.921,171.941 131.807 C 171.827 131.694,171.537 132.006,171.295 132.501 M173.246 136.867 C 173.221 137.234,173.096 137.864,172.970 138.267 C 172.752 138.962,172.763 138.963,173.197 138.287 C 173.448 137.896,173.573 137.266,173.473 136.887 C 173.311 136.268,173.288 136.266,173.246 136.867 M193.620 140.000 C 193.616 140.110,193.871 140.920,194.188 141.800 C 194.505 142.680,194.766 143.040,194.768 142.600 C 194.771 141.935,193.645 139.385,193.620 140.000 M241.115 142.400 C 241.212 143.060,241.360 143.600,241.445 143.600 C 241.530 143.600,241.600 143.060,241.600 142.400 C 241.600 141.740,241.451 141.200,241.269 141.200 C 241.087 141.200,241.018 141.740,241.115 142.400 M168.446 143.267 C 168.421 143.634,168.296 144.264,168.170 144.667 C 167.952 145.362,167.963 145.363,168.397 144.687 C 168.648 144.296,168.773 143.666,168.673 143.287 C 168.511 142.668,168.488 142.666,168.446 143.267 M167.300 147.023 C 167.025 147.322,166.800 147.794,166.800 148.072 C 166.800 148.350,167.088 148.166,167.441 147.663 C 168.162 146.633,168.065 146.193,167.300 147.023 M242.715 148.000 C 242.812 148.660,242.960 149.200,243.045 149.200 C 243.130 149.200,243.200 148.660,243.200 148.000 C 243.200 147.340,243.051 146.800,242.869 146.800 C 242.687 146.800,242.618 147.340,242.715 148.000 M243.596 150.983 C 243.780 151.797,244.038 152.571,244.169 152.703 C 244.526 153.060,243.945 150.257,243.578 149.851 C 243.404 149.659,243.412 150.168,243.596 150.983 M196.806 152.433 C 196.809 152.965,196.989 153.670,197.206 154.000 C 197.482 154.422,197.523 154.185,197.342 153.200 C 197.025 151.475,196.798 151.149,196.806 152.433 M165.800 153.200 C 165.648 153.891,165.607 154.541,165.709 154.642 C 165.811 154.744,166.009 154.253,166.150 153.550 C 166.483 151.883,166.160 151.560,165.800 153.200 M244.695 154.600 C 244.794 155.040,244.969 155.897,245.084 156.505 C 245.407 158.219,245.832 158.118,245.665 156.366 C 245.583 155.505,245.368 154.800,245.187 154.800 C 245.007 154.800,244.781 154.575,244.687 154.300 C 244.592 154.025,244.596 154.160,244.695 154.600 M246.006 159.433 C 246.009 159.855,246.195 160.470,246.418 160.800 C 246.715 161.238,246.752 161.076,246.556 160.200 C 246.227 158.729,245.998 158.410,246.006 159.433 M198.000 159.708 C 198.000 160.042,198.270 160.418,198.600 160.545 C 198.930 160.671,199.200 160.623,199.200 160.436 C 199.200 160.250,198.930 159.874,198.600 159.600 C 198.112 159.195,198.000 159.215,198.000 159.708 M166.643 161.433 C 166.509 161.781,166.400 162.490,166.400 163.009 C 166.400 163.528,166.220 164.064,166.000 164.200 C 165.780 164.336,165.600 164.657,165.600 164.913 C 165.600 165.895,166.692 163.726,166.915 162.300 C 167.162 160.723,167.051 160.369,166.643 161.433 M163.467 161.467 C 163.320 161.613,163.218 162.288,163.241 162.967 L 163.282 164.200 163.610 162.803 C 163.953 161.347,163.917 161.016,163.467 161.467 M199.256 162.400 C 199.256 162.730,199.411 163.360,199.600 163.800 C 199.817 164.304,199.944 164.378,199.944 164.000 C 199.944 163.670,199.789 163.040,199.600 162.600 C 199.383 162.096,199.256 162.022,199.256 162.400 M246.800 162.687 C 246.800 162.943,246.980 163.264,247.200 163.400 C 247.420 163.536,247.600 164.166,247.600 164.800 C 247.600 165.434,247.747 166.044,247.928 166.155 C 248.434 166.468,247.958 163.898,247.345 163.011 C 247.045 162.577,246.800 162.431,246.800 162.687 M161.849 167.815 C 161.712 168.173,161.618 168.856,161.641 169.333 C 161.667 169.881,161.803 169.686,162.010 168.803 C 162.360 167.316,162.265 166.733,161.849 167.815 M164.243 170.233 C 164.109 170.581,164.000 171.290,164.000 171.809 C 164.000 172.328,163.820 172.864,163.600 173.000 C 163.380 173.136,163.214 173.552,163.232 173.924 C 163.257 174.476,163.305 174.490,163.492 174.000 C 163.617 173.670,163.846 173.310,164.000 173.200 C 164.272 173.006,164.844 169.600,164.605 169.600 C 164.539 169.600,164.376 169.885,164.243 170.233 M201.900 173.846 C 202.111 175.777,203.200 178.177,203.200 176.713 C 203.200 176.347,203.020 175.936,202.800 175.800 C 202.580 175.664,202.397 174.978,202.394 174.276 C 202.391 173.574,202.230 172.751,202.037 172.446 C 201.823 172.108,201.769 172.653,201.900 173.846 M250.006 173.433 C 250.009 173.855,250.195 174.470,250.418 174.800 C 250.715 175.238,250.752 175.076,250.556 174.200 C 250.227 172.729,249.998 172.410,250.006 173.433 M162.554 176.177 C 162.432 176.494,162.403 177.079,162.489 177.477 C 162.587 177.928,162.724 177.712,162.854 176.900 C 163.071 175.538,162.930 175.196,162.554 176.177 M161.820 178.900 C 161.735 179.175,161.560 179.895,161.432 180.500 C 161.121 181.974,160.866 183.579,161.083 182.700 C 161.178 182.315,161.405 182.000,161.588 182.000 C 161.770 182.000,161.984 181.190,162.063 180.200 C 162.205 178.412,162.117 177.942,161.820 178.900 M203.444 179.800 C 203.773 181.271,204.002 181.590,203.994 180.567 C 203.991 180.145,203.805 179.530,203.582 179.200 C 203.285 178.762,203.248 178.924,203.444 179.800 M204.244 183.000 C 204.573 184.471,204.802 184.790,204.794 183.767 C 204.791 183.345,204.605 182.730,204.382 182.400 C 204.085 181.962,204.048 182.124,204.244 183.000 M160.267 184.667 C 160.120 184.813,160.000 185.407,160.000 185.987 C 160.000 186.566,159.803 187.237,159.562 187.478 C 159.322 187.718,159.211 188.249,159.316 188.658 C 159.473 189.269,159.515 189.241,159.554 188.500 C 159.579 188.005,159.761 187.600,159.958 187.600 C 160.155 187.600,160.385 186.880,160.469 186.000 C 160.552 185.120,160.601 184.400,160.577 184.400 C 160.553 184.400,160.413 184.520,160.267 184.667 M156.735 186.766 C 156.652 187.628,156.704 188.260,156.848 188.170 C 157.214 187.944,157.503 185.200,157.162 185.200 C 157.009 185.200,156.817 185.905,156.735 186.766 M204.400 185.551 C 204.400 185.798,204.567 186.000,204.771 186.000 C 204.975 186.000,205.224 186.315,205.324 186.700 C 205.479 187.291,205.514 187.298,205.554 186.749 C 205.579 186.391,205.330 185.874,205.000 185.600 C 204.585 185.256,204.400 185.241,204.400 185.551 M156.054 189.467 C 156.025 189.944,155.896 190.664,155.770 191.067 C 155.552 191.761,155.564 191.762,155.996 191.088 C 156.247 190.697,156.375 189.977,156.281 189.488 C 156.109 188.601,156.109 188.601,156.054 189.467 M206.237 190.800 C 206.355 191.570,206.548 192.965,206.666 193.900 C 206.784 194.835,207.014 195.600,207.177 195.600 C 207.496 195.600,207.105 193.065,206.436 190.800 L 206.022 189.400 206.237 190.800 M255.062 191.280 C 255.369 192.898,255.981 194.152,256.306 193.828 C 256.438 193.695,256.334 193.374,256.073 193.113 C 255.813 192.853,255.600 192.147,255.600 191.544 C 255.600 190.941,255.423 190.338,255.206 190.204 C 254.960 190.052,254.906 190.456,255.062 191.280 M158.061 192.931 C 157.764 193.940,157.615 194.998,157.729 195.283 C 157.843 195.567,157.951 195.383,157.968 194.874 C 157.986 194.364,158.191 193.590,158.425 193.153 C 158.659 192.716,158.794 192.074,158.725 191.727 C 158.656 191.380,158.357 191.922,158.061 192.931 M154.949 193.371 C 154.439 193.925,154.016 197.237,154.493 196.943 C 154.662 196.838,154.800 196.302,154.800 195.750 C 154.800 195.199,154.995 194.384,155.232 193.939 C 155.743 192.986,155.588 192.676,154.949 193.371 M153.646 198.467 C 153.621 198.834,153.496 199.464,153.370 199.867 C 153.152 200.562,153.163 200.563,153.597 199.887 C 153.848 199.496,153.973 198.866,153.873 198.487 C 153.711 197.868,153.688 197.866,153.646 198.467 M257.463 199.700 C 257.822 201.623,258.243 201.824,258.068 199.990 C 257.984 199.115,257.759 198.400,257.568 198.400 C 257.377 198.400,257.329 198.985,257.463 199.700 M208.413 201.076 C 208.406 201.338,208.580 201.664,208.800 201.800 C 209.020 201.936,209.203 202.532,209.206 203.124 C 209.209 203.716,209.406 204.470,209.644 204.800 C 210.003 205.299,210.035 205.277,209.838 204.667 C 209.707 204.264,209.600 203.534,209.600 203.044 C 209.600 202.136,208.436 200.207,208.413 201.076 M152.488 202.666 C 151.955 203.704,151.510 206.776,152.005 206.000 C 152.216 205.670,152.391 204.941,152.394 204.380 C 152.397 203.819,152.613 203.147,152.873 202.887 C 153.134 202.626,153.238 202.305,153.106 202.172 C 152.973 202.040,152.695 202.262,152.488 202.666 M155.152 203.913 C 155.021 204.707,155.079 205.081,155.301 204.859 C 155.503 204.657,155.601 204.067,155.519 203.546 C 155.393 202.745,155.337 202.802,155.152 203.913 M259.254 205.851 C 259.225 206.319,259.470 206.926,259.800 207.200 C 260.215 207.544,260.400 207.559,260.400 207.249 C 260.400 207.002,260.233 206.800,260.028 206.800 C 259.823 206.800,259.578 206.395,259.482 205.900 C 259.316 205.038,259.307 205.036,259.254 205.851 M210.006 206.633 C 210.009 207.055,210.195 207.670,210.418 208.000 C 210.715 208.438,210.752 208.276,210.556 207.400 C 210.227 205.929,209.998 205.610,210.006 206.633 M149.449 214.215 C 149.312 214.573,149.215 215.166,149.234 215.533 C 149.253 215.900,149.427 215.669,149.621 215.020 C 149.998 213.758,149.865 213.133,149.449 214.215 M261.616 214.276 C 261.607 214.758,261.780 215.264,262.000 215.400 C 262.220 215.536,262.403 216.042,262.406 216.524 C 262.409 217.006,262.589 217.670,262.806 218.000 C 263.344 218.822,262.836 216.190,262.150 214.600 C 261.709 213.580,261.629 213.532,261.616 214.276 M148.400 217.200 C 148.083 217.396,147.956 217.689,148.118 217.852 C 148.281 218.014,148.623 217.937,148.880 217.680 C 149.484 217.076,149.147 216.738,148.400 217.200 M151.200 219.000 C 150.917 219.341,150.776 219.709,150.886 219.819 C 150.996 219.929,151.317 219.741,151.600 219.400 C 151.883 219.059,152.024 218.691,151.914 218.581 C 151.804 218.471,151.483 218.659,151.200 219.000 M263.200 219.948 C 263.200 220.171,263.380 220.464,263.600 220.600 C 263.820 220.736,264.000 221.366,264.000 222.000 C 264.000 222.634,264.142 223.241,264.316 223.348 C 264.853 223.680,264.327 220.670,263.747 220.090 C 263.446 219.789,263.200 219.725,263.200 219.948 M150.154 222.177 C 149.329 224.324,147.358 224.200,182.205 224.200 C 213.920 224.200,214.200 224.193,214.239 223.400 C 214.269 222.791,214.239 222.767,214.111 223.300 C 213.954 223.959,212.099 224.000,182.127 224.000 L 150.309 224.000 150.485 222.800 C 150.673 221.521,150.518 221.228,150.154 222.177 M147.049 223.015 C 146.912 223.373,146.818 224.056,146.841 224.533 C 146.867 225.081,147.003 224.886,147.210 224.003 C 147.560 222.516,147.465 221.933,147.049 223.015 M149.023 227.289 C 148.680 227.778,148.406 228.363,148.414 228.589 C 148.422 228.815,148.677 228.550,148.982 228.000 L 149.535 227.000 182.068 226.796 L 214.600 226.593 182.123 226.496 L 149.645 226.400 149.023 227.289 M215.646 228.800 C 215.627 229.350,215.787 230.070,216.000 230.400 C 216.494 231.164,216.494 230.342,216.000 228.800 L 215.680 227.800 215.646 228.800 M147.867 230.667 C 147.720 230.813,147.600 231.433,147.600 232.043 C 147.600 232.653,147.420 233.264,147.200 233.400 C 146.980 233.536,146.800 233.947,146.800 234.313 C 146.800 235.572,147.883 233.511,148.068 231.900 C 148.162 231.075,148.216 230.400,148.186 230.400 C 148.157 230.400,148.013 230.520,147.867 230.667 M144.667 231.867 C 144.520 232.013,144.400 232.565,144.400 233.093 C 144.400 233.621,144.198 234.446,143.951 234.926 C 143.595 235.619,143.605 235.703,143.999 235.332 C 144.272 235.075,144.630 234.130,144.794 233.232 C 145.107 231.522,145.099 231.435,144.667 231.867 M216.768 233.900 C 216.959 235.281,216.987 235.309,217.119 234.251 C 217.198 233.619,217.105 232.945,216.912 232.752 C 216.710 232.550,216.649 233.040,216.768 233.900 M216.800 235.795 C 216.800 235.939,217.089 236.347,217.443 236.700 C 218.034 237.291,218.075 237.283,217.943 236.605 C 217.811 235.922,216.800 235.206,216.800 235.795 M146.249 236.615 C 146.112 236.973,146.015 237.566,146.034 237.933 C 146.053 238.300,146.227 238.069,146.421 237.420 C 146.798 236.158,146.665 235.533,146.249 236.615 M145.354 239.777 C 145.232 240.094,145.203 240.679,145.289 241.077 C 145.387 241.528,145.524 241.312,145.654 240.500 C 145.871 239.138,145.730 238.796,145.354 239.777 M144.590 242.830 C 144.446 243.287,144.433 243.767,144.563 243.897 C 144.694 244.027,144.800 243.833,144.800 243.467 C 144.800 243.100,144.980 242.800,145.200 242.800 C 145.420 242.800,145.600 242.620,145.600 242.400 C 145.600 241.670,144.858 241.986,144.590 242.830 M219.200 245.351 C 219.200 245.708,219.367 246.000,219.571 246.000 C 219.775 246.000,220.024 246.315,220.124 246.700 C 220.270 247.256,220.317 247.225,220.354 246.549 C 220.379 246.081,220.130 245.474,219.800 245.200 C 219.309 244.792,219.200 244.820,219.200 245.351 M143.510 247.000 C 143.366 247.660,143.083 248.960,142.880 249.889 C 142.677 250.818,142.666 251.483,142.856 251.366 C 143.045 251.249,143.200 250.702,143.200 250.150 C 143.200 249.599,143.391 248.790,143.625 248.353 C 143.859 247.916,143.987 247.163,143.910 246.679 C 143.791 245.933,143.731 245.981,143.510 247.000 M140.270 248.610 C 140.121 249.045,139.891 249.670,139.758 250.000 C 139.626 250.330,139.819 250.190,140.188 249.690 C 140.558 249.189,140.788 248.564,140.700 248.300 C 140.610 248.031,140.422 248.167,140.270 248.610 M220.692 250.067 C 220.816 251.020,221.183 252.160,221.508 252.600 L 222.098 253.400 221.799 252.600 C 221.634 252.160,221.365 251.118,221.201 250.284 C 220.778 248.144,220.423 247.992,220.692 250.067 M271.646 249.024 C 271.621 249.476,271.864 250.196,272.187 250.624 C 272.510 251.051,272.780 251.211,272.787 250.980 C 272.794 250.749,272.637 250.389,272.439 250.180 C 272.240 249.971,271.991 249.440,271.885 249.000 C 271.697 248.220,271.692 248.220,271.646 249.024 M273.862 256.880 C 274.000 257.606,274.248 258.380,274.413 258.600 C 274.579 258.820,274.802 259.360,274.911 259.800 C 275.093 260.541,275.111 260.536,275.154 259.724 C 275.179 259.242,275.020 258.736,274.800 258.600 C 274.580 258.464,274.400 257.834,274.400 257.200 C 274.400 256.566,274.223 255.938,274.006 255.804 C 273.760 255.652,273.706 256.056,273.862 256.880 M137.688 258.287 C 137.063 259.940,136.705 262.346,137.194 261.600 C 137.411 261.270,137.591 260.583,137.594 260.074 C 137.597 259.564,137.795 258.784,138.032 258.339 C 138.270 257.895,138.384 257.451,138.286 257.353 C 138.188 257.255,137.919 257.675,137.688 258.287 M223.044 259.000 C 223.373 260.471,223.602 260.790,223.594 259.767 C 223.591 259.345,223.405 258.730,223.182 258.400 C 222.885 257.962,222.848 258.124,223.044 259.000 M223.200 261.600 C 223.200 261.820,223.380 262.000,223.600 262.000 C 223.820 262.000,224.000 262.390,224.000 262.867 C 224.000 263.343,224.112 263.622,224.248 263.485 C 224.608 263.125,224.056 261.200,223.592 261.200 C 223.377 261.200,223.200 261.380,223.200 261.600 M275.654 263.076 C 275.625 263.558,275.780 264.064,276.000 264.200 C 276.220 264.336,276.400 264.966,276.400 265.600 C 276.400 266.234,276.538 266.838,276.707 266.943 C 276.876 267.047,276.948 266.428,276.865 265.566 C 276.783 264.705,276.567 264.000,276.386 264.000 C 276.204 264.000,275.978 263.595,275.882 263.100 C 275.709 262.200,275.709 262.200,275.654 263.076 M136.164 263.755 C 135.924 264.016,135.622 265.023,135.492 265.994 C 135.339 267.132,135.385 267.553,135.621 267.179 C 135.823 266.861,135.991 266.141,135.994 265.580 C 135.997 265.019,136.213 264.347,136.473 264.087 C 136.734 263.826,136.869 263.538,136.773 263.447 C 136.678 263.356,136.404 263.494,136.164 263.755 M224.832 267.076 C 224.814 267.558,224.980 268.064,225.200 268.200 C 225.420 268.336,225.600 269.056,225.600 269.800 C 225.600 270.544,225.777 271.262,225.994 271.396 C 226.428 271.664,226.164 269.540,225.597 268.200 C 225.411 267.760,225.170 267.130,225.061 266.800 C 224.936 266.421,224.852 266.523,224.832 267.076 M138.046 267.667 C 138.021 268.034,137.896 268.664,137.770 269.067 C 137.552 269.762,137.563 269.763,137.997 269.087 C 138.248 268.696,138.373 268.066,138.273 267.687 C 138.111 267.068,138.088 267.066,138.046 267.667 M278.032 271.676 C 278.014 272.048,278.180 272.464,278.400 272.600 C 278.620 272.736,278.803 273.242,278.806 273.724 C 278.809 274.206,278.984 274.870,279.195 275.200 C 279.455 275.608,279.497 275.287,279.327 274.200 C 279.189 273.320,278.951 272.510,278.798 272.400 C 278.645 272.290,278.417 271.930,278.292 271.600 C 278.105 271.110,278.057 271.124,278.032 271.676 M133.260 274.467 C 133.227 275.054,133.096 275.864,132.970 276.267 C 132.752 276.960,132.765 276.961,133.195 276.290 C 133.446 275.899,133.577 275.089,133.486 274.490 L 133.320 273.400 133.260 274.467 M135.429 277.829 C 135.281 278.415,135.238 278.972,135.332 279.066 C 135.427 279.160,135.624 278.758,135.771 278.171 C 135.919 277.585,135.962 277.028,135.868 276.934 C 135.773 276.840,135.576 277.242,135.429 277.829 M228.006 279.433 C 228.009 280.075,228.184 280.870,228.395 281.200 C 228.655 281.609,228.699 281.290,228.532 280.200 C 228.229 278.223,227.998 277.886,228.006 279.433 M281.206 282.233 C 281.209 282.655,281.395 283.270,281.618 283.600 C 281.915 284.038,281.952 283.876,281.756 283.000 C 281.427 281.529,281.198 281.210,281.206 282.233 M133.800 285.200 C 133.648 285.891,133.607 286.541,133.709 286.642 C 133.811 286.744,134.009 286.253,134.150 285.550 C 134.483 283.883,134.160 283.560,133.800 285.200 M229.200 287.081 C 229.200 287.539,229.470 288.018,229.800 288.145 C 230.552 288.433,230.547 288.028,229.787 287.024 C 229.210 286.261,229.200 286.262,229.200 287.081 M133.000 290.000 C 132.848 290.691,132.807 291.341,132.909 291.442 C 133.011 291.544,133.209 291.053,133.350 290.350 C 133.683 288.683,133.360 288.360,133.000 290.000 M230.493 290.800 C 230.493 291.570,230.575 291.885,230.676 291.500 C 230.776 291.115,230.776 290.485,230.676 290.100 C 230.575 289.715,230.493 290.030,230.493 290.800 M230.920 294.800 C 230.920 296.010,230.995 296.505,231.087 295.900 C 231.178 295.295,231.178 294.305,231.087 293.700 C 230.995 293.095,230.920 293.590,230.920 294.800 M125.591 296.900 C 125.586 297.175,125.230 297.850,124.800 298.400 C 124.370 298.950,124.014 299.575,124.009 299.789 C 124.004 300.003,124.242 299.823,124.539 299.389 C 126.118 297.075,126.459 296.400,126.046 296.400 C 125.801 296.400,125.596 296.625,125.591 296.900 M115.900 304.291 C 115.075 304.378,114.400 304.617,114.400 304.824 C 114.400 305.031,113.905 305.225,113.300 305.254 C 112.290 305.304,112.278 305.324,113.146 305.488 C 113.667 305.587,114.288 305.472,114.526 305.234 C 114.765 304.995,115.419 304.797,115.980 304.794 C 116.541 304.791,117.270 304.613,117.600 304.400 C 117.930 304.187,118.020 304.040,117.800 304.073 C 117.580 304.107,116.725 304.205,115.900 304.291 M137.600 304.452 C 138.150 304.689,138.913 305.044,139.295 305.241 C 140.353 305.788,140.679 305.669,139.789 305.060 C 139.355 304.763,138.460 304.407,137.800 304.270 C 136.656 304.033,136.647 304.041,137.600 304.452 M293.600 304.470 C 294.150 304.704,295.005 305.085,295.499 305.315 C 295.994 305.546,296.519 305.614,296.666 305.467 C 296.813 305.320,296.648 305.200,296.300 305.200 C 295.952 305.200,295.607 305.049,295.533 304.863 C 295.460 304.678,294.770 304.418,294.000 304.286 C 292.748 304.070,292.706 304.090,293.600 304.470 M224.400 304.771 C 224.400 304.975,224.085 305.224,223.700 305.324 C 223.109 305.479,223.102 305.514,223.651 305.554 C 224.009 305.579,224.526 305.330,224.800 305.000 C 225.144 304.585,225.159 304.400,224.849 304.400 C 224.602 304.400,224.400 304.567,224.400 304.771 M99.352 307.000 L 99.400 308.600 130.600 308.600 L 161.800 308.600 161.842 307.097 L 161.884 305.593 161.718 306.997 L 161.552 308.400 130.600 308.400 L 99.648 308.400 99.476 306.900 L 99.305 305.400 99.352 307.000 M206.152 307.000 L 206.200 308.600 254.400 308.602 L 302.600 308.605 254.524 308.501 L 206.448 308.397 206.276 306.898 L 206.105 305.400 206.152 307.000 " stroke="none" fill="#464646" fill-rule="evenodd"></path><path id="path4" d="M230.352 104.087 C 230.537 105.198,230.593 105.255,230.719 104.454 C 230.801 103.933,230.703 103.343,230.501 103.141 C 230.279 102.919,230.221 103.293,230.352 104.087 M169.354 138.577 C 169.232 138.894,169.203 139.479,169.289 139.877 C 169.387 140.328,169.524 140.112,169.654 139.300 C 169.871 137.938,169.730 137.596,169.354 138.577 M132.893 292.800 C 132.893 293.570,132.975 293.885,133.076 293.500 C 133.176 293.115,133.176 292.485,133.076 292.100 C 132.975 291.715,132.893 292.030,132.893 292.800 M302.493 307.200 C 302.493 307.970,302.575 308.285,302.676 307.900 C 302.776 307.515,302.776 306.885,302.676 306.500 C 302.575 306.115,302.493 306.430,302.493 307.200 " stroke="none" fill="#5c5c5c" fill-rule="evenodd"></path></g></svg>